{
	"asset":{
		"generator":"Khronos glTF Blender I/O v3.6.27",
		"version":"2.0"
	},
	"scene":0,
	"scenes":[
		{
			"name":"Scene",
			"nodes":[
				0,
				1,
				2,
				3,
				4,
				5,
				6,
				7,
				8,
				9,
				10,
				11,
				12,
				13,
				14,
				15
			]
		}
	],
	"nodes":[
		{
			"mesh":0,
			"name":"Grass1",
			"translation":[
				0.6895619034767151,
				0,
				1.6102617979049683
			]
		},
		{
			"mesh":1,
			"name":"Grass2",
			"translation":[
				-0.4199008047580719,
				0,
				1.4908405542373657
			]
		},
		{
			"mesh":2,
			"name":"Grass3",
			"translation":[
				1.849104404449463,
				0,
				-1.2211796045303345
			]
		},
		{
			"mesh":3,
			"name":"Grass4",
			"translation":[
				-1.9492645263671875,
				0,
				1.0863488912582397
			]
		},
		{
			"mesh":4,
			"name":"Player",
			"translation":[
				1.6720050573349,
				0.5536379218101501,
				0.7112900614738464
			]
		},
		{
			"mesh":5,
			"name":"RoadTile",
			"translation":[
				-0.03858582675457001,
				0,
				-0.0025320863351225853
			]
		},
		{
			"mesh":6,
			"name":"RoadTile2",
			"translation":[
				-0.07101694494485855,
				0,
				-0.5633477568626404
			]
		},
		{
			"mesh":7,
			"name":"LumberingDevil",
			"translation":[
				4.083438396453857,
				0.621980607509613,
				0.23493866622447968
			]
		},
		{
			"mesh":8,
			"name":"Checkpoint",
			"translation":[
				1.6794360876083374,
				0.09830310195684433,
				-0.5554772019386292
			]
		},
		{
			"mesh":9,
			"name":"Person",
			"translation":[
				1.6868674755096436,
				0.8539977073669434,
				0.015006724745035172
			]
		},
		{
			"mesh":10,
			"name":"Pentagram",
			"translation":[
				-2.5810422897338867,
				0,
				0.061636846512556076
			]
		},
		{
			"mesh":11,
			"name":"Shadow",
			"translation":[
				-4.52260160446167,
				0,
				-0.20417197048664093
			]
		},
		{
			"mesh":12,
			"name":"Shadow.001",
			"translation":[
				5.375565528869629,
				0,
				0.020976152271032333
			]
		},
		{
			"mesh":13,
			"name":"Trunk",
			"translation":[
				0.08089832216501236,
				0.0626683235168457,
				-1.444612979888916
			]
		},
		{
			"mesh":14,
			"name":"Trunk2",
			"translation":[
				-0.7396418452262878,
				0.1009267121553421,
				-1.4176467657089233
			]
		},
		{
			"mesh":15,
			"name":"Trunk3",
			"translation":[
				-1.7722077369689941,
				0.07827046513557434,
				-1.2715338468551636
			]
		}
	],
	"meshes":[
		{
			"name":"Plane.001",
			"primitives":[
				{
					"attributes":{
						"COLOR_0":0,
						"POSITION":1,
						"NORMAL":2,
						"TEXCOORD_0":3
					},
					"indices":4
				}
			]
		},
		{
			"name":"Plane.002",
			"primitives":[
				{
					"attributes":{
						"COLOR_0":5,
						"POSITION":6,
						"NORMAL":7,
						"TEXCOORD_0":8
					},
					"indices":4
				}
			]
		},
		{
			"name":"Plane.003",
			"primitives":[
				{
					"attributes":{
						"COLOR_0":9,
						"POSITION":10,
						"NORMAL":11,
						"TEXCOORD_0":12
					},
					"indices":13
				}
			]
		},
		{
			"name":"Plane.004",
			"primitives":[
				{
					"attributes":{
						"COLOR_0":14,
						"POSITION":15,
						"NORMAL":16,
						"TEXCOORD_0":17
					},
					"indices":13
				}
			]
		},
		{
			"name":"Plane.006",
			"primitives":[
				{
					"attributes":{
						"COLOR_0":18,
						"POSITION":19,
						"NORMAL":20,
						"TEXCOORD_0":21
					},
					"indices":22
				}
			]
		},
		{
			"name":"Plane.007",
			"primitives":[
				{
					"attributes":{
						"COLOR_0":23,
						"POSITION":24,
						"NORMAL":25,
						"TEXCOORD_0":26
					},
					"indices":27
				}
			]
		},
		{
			"name":"Plane.008",
			"primitives":[
				{
					"attributes":{
						"COLOR_0":28,
						"POSITION":29,
						"NORMAL":30,
						"TEXCOORD_0":31
					},
					"indices":32
				}
			]
		},
		{
			"name":"Plane.010",
			"primitives":[
				{
					"attributes":{
						"COLOR_0":33,
						"POSITION":34,
						"NORMAL":35,
						"TEXCOORD_0":36
					},
					"indices":37
				}
			]
		},
		{
			"name":"Plane.011",
			"primitives":[
				{
					"attributes":{
						"COLOR_0":38,
						"POSITION":39,
						"NORMAL":40,
						"TEXCOORD_0":41
					},
					"indices":42
				}
			]
		},
		{
			"name":"Plane.012",
			"primitives":[
				{
					"attributes":{
						"COLOR_0":43,
						"POSITION":44,
						"NORMAL":45,
						"TEXCOORD_0":46
					},
					"indices":47
				}
			]
		},
		{
			"name":"Plane.014",
			"primitives":[
				{
					"attributes":{
						"COLOR_0":48,
						"POSITION":49,
						"NORMAL":50,
						"TEXCOORD_0":51
					},
					"indices":52
				}
			]
		},
		{
			"name":"Circle",
			"primitives":[
				{
					"attributes":{
						"COLOR_0":53,
						"POSITION":54,
						"NORMAL":55,
						"TEXCOORD_0":56
					},
					"indices":57
				}
			]
		},
		{
			"name":"Circle.001",
			"primitives":[
				{
					"attributes":{
						"COLOR_0":58,
						"POSITION":59,
						"NORMAL":60,
						"TEXCOORD_0":61
					},
					"indices":62
				}
			]
		},
		{
			"name":"Plane.016",
			"primitives":[
				{
					"attributes":{
						"COLOR_0":63,
						"POSITION":64,
						"NORMAL":65,
						"TEXCOORD_0":66
					},
					"indices":67
				}
			]
		},
		{
			"name":"Mesh",
			"primitives":[
				{
					"attributes":{
						"COLOR_0":68,
						"POSITION":69,
						"NORMAL":70,
						"TEXCOORD_0":71
					},
					"indices":72
				}
			]
		},
		{
			"name":"Plane.018",
			"primitives":[
				{
					"attributes":{
						"COLOR_0":73,
						"POSITION":74,
						"NORMAL":75,
						"TEXCOORD_0":76
					},
					"indices":77
				}
			]
		}
	],
	"accessors":[
		{
			"bufferView":0,
			"componentType":5126,
			"count":12,
			"type":"VEC4"
		},
		{
			"bufferView":1,
			"componentType":5126,
			"count":12,
			"max":[
				0.18146169185638428,
				0.01699955388903618,
				0.19157814979553223
			],
			"min":[
				-0.18896543979644775,
				-0.05854526534676552,
				-0.42394137382507324
			],
			"type":"VEC3"
		},
		{
			"bufferView":2,
			"componentType":5126,
			"count":12,
			"type":"VEC3"
		},
		{
			"bufferView":3,
			"componentType":5126,
			"count":12,
			"type":"VEC2"
		},
		{
			"bufferView":4,
			"componentType":5123,
			"count":12,
			"type":"SCALAR"
		},
		{
			"bufferView":5,
			"componentType":5126,
			"count":12,
			"type":"VEC4"
		},
		{
			"bufferView":6,
			"componentType":5126,
			"count":12,
			"max":[
				0.1439092457294464,
				0.023662662133574486,
				0.20342743396759033
			],
			"min":[
				-0.16653034090995789,
				-0.05263618752360344,
				-0.48506033420562744
			],
			"type":"VEC3"
		},
		{
			"bufferView":7,
			"componentType":5126,
			"count":12,
			"type":"VEC3"
		},
		{
			"bufferView":8,
			"componentType":5126,
			"count":12,
			"type":"VEC2"
		},
		{
			"bufferView":9,
			"componentType":5126,
			"count":15,
			"type":"VEC4"
		},
		{
			"bufferView":10,
			"componentType":5126,
			"count":15,
			"max":[
				0.1802687644958496,
				0.029843280091881752,
				0.1711975336074829
			],
			"min":[
				-0.1963672637939453,
				-0.046455565840005875,
				-0.4105767011642456
			],
			"type":"VEC3"
		},
		{
			"bufferView":11,
			"componentType":5126,
			"count":15,
			"type":"VEC3"
		},
		{
			"bufferView":12,
			"componentType":5126,
			"count":15,
			"type":"VEC2"
		},
		{
			"bufferView":13,
			"componentType":5123,
			"count":15,
			"type":"SCALAR"
		},
		{
			"bufferView":14,
			"componentType":5126,
			"count":15,
			"type":"VEC4"
		},
		{
			"bufferView":15,
			"componentType":5126,
			"count":15,
			"max":[
				0.19571316242218018,
				0.025455987080931664,
				0.1622985601425171
			],
			"min":[
				-0.212357759475708,
				-0.042856615036726,
				-0.335432767868042
			],
			"type":"VEC3"
		},
		{
			"bufferView":16,
			"componentType":5126,
			"count":15,
			"type":"VEC3"
		},
		{
			"bufferView":17,
			"componentType":5126,
			"count":15,
			"type":"VEC2"
		},
		{
			"bufferView":18,
			"componentType":5126,
			"count":36,
			"type":"VEC4"
		},
		{
			"bufferView":19,
			"componentType":5126,
			"count":36,
			"max":[
				0.8693763017654419,
				0.2381613850593567,
				0.34772664308547974
			],
			"min":[
				-0.8693757653236389,
				-0.1123650074005127,
				-0.37299954891204834
			],
			"type":"VEC3"
		},
		{
			"bufferView":20,
			"componentType":5126,
			"count":36,
			"type":"VEC3"
		},
		{
			"bufferView":21,
			"componentType":5126,
			"count":36,
			"type":"VEC2"
		},
		{
			"bufferView":22,
			"componentType":5123,
			"count":48,
			"type":"SCALAR"
		},
		{
			"bufferView":23,
			"componentType":5126,
			"count":36,
			"type":"VEC4"
		},
		{
			"bufferView":24,
			"componentType":5126,
			"count":36,
			"max":[
				0.209209606051445,
				0,
				0.18050242960453033
			],
			"min":[
				-0.18020886182785034,
				0,
				-0.15206703543663025
			],
			"type":"VEC3"
		},
		{
			"bufferView":25,
			"componentType":5126,
			"count":36,
			"type":"VEC3"
		},
		{
			"bufferView":26,
			"componentType":5126,
			"count":36,
			"type":"VEC2"
		},
		{
			"bufferView":27,
			"componentType":5123,
			"count":54,
			"type":"SCALAR"
		},
		{
			"bufferView":28,
			"componentType":5126,
			"count":48,
			"type":"VEC4"
		},
		{
			"bufferView":29,
			"componentType":5126,
			"count":48,
			"max":[
				0.20175801217556,
				0,
				0.18089395761489868
			],
			"min":[
				-0.19230137765407562,
				0,
				-0.16534540057182312
			],
			"type":"VEC3"
		},
		{
			"bufferView":30,
			"componentType":5126,
			"count":48,
			"type":"VEC3"
		},
		{
			"bufferView":31,
			"componentType":5126,
			"count":48,
			"type":"VEC2"
		},
		{
			"bufferView":32,
			"componentType":5123,
			"count":72,
			"type":"SCALAR"
		},
		{
			"bufferView":33,
			"componentType":5126,
			"count":96,
			"type":"VEC4"
		},
		{
			"bufferView":34,
			"componentType":5126,
			"count":96,
			"max":[
				1.2585234642028809,
				0.3089529275894165,
				0.8061962723731995
			],
			"min":[
				-1.2585225105285645,
				-0.13445788621902466,
				-0.6228758096694946
			],
			"type":"VEC3"
		},
		{
			"bufferView":35,
			"componentType":5126,
			"count":96,
			"type":"VEC3"
		},
		{
			"bufferView":36,
			"componentType":5126,
			"count":96,
			"type":"VEC2"
		},
		{
			"bufferView":37,
			"componentType":5123,
			"count":132,
			"type":"SCALAR"
		},
		{
			"bufferView":38,
			"componentType":5126,
			"count":20,
			"type":"VEC4"
		},
		{
			"bufferView":39,
			"componentType":5126,
			"count":20,
			"max":[
				0.12923157215118408,
				0.006123349070549011,
				0.18845343589782715
			],
			"min":[
				-0.12923133373260498,
				-0.004189394414424896,
				-0.18845349550247192
			],
			"type":"VEC3"
		},
		{
			"bufferView":40,
			"componentType":5126,
			"count":20,
			"type":"VEC3"
		},
		{
			"bufferView":41,
			"componentType":5126,
			"count":20,
			"type":"VEC2"
		},
		{
			"bufferView":42,
			"componentType":5123,
			"count":36,
			"type":"SCALAR"
		},
		{
			"bufferView":43,
			"componentType":5126,
			"count":26,
			"type":"VEC4"
		},
		{
			"bufferView":44,
			"componentType":5126,
			"count":26,
			"max":[
				0.6554312705993652,
				0.2086859941482544,
				0.278606116771698
			],
			"min":[
				-0.6554312705993652,
				-0.20306086540222168,
				-0.3083386719226837
			],
			"type":"VEC3"
		},
		{
			"bufferView":45,
			"componentType":5126,
			"count":26,
			"type":"VEC3"
		},
		{
			"bufferView":46,
			"componentType":5126,
			"count":26,
			"type":"VEC2"
		},
		{
			"bufferView":47,
			"componentType":5123,
			"count":48,
			"type":"SCALAR"
		},
		{
			"bufferView":48,
			"componentType":5126,
			"count":60,
			"type":"VEC4"
		},
		{
			"bufferView":49,
			"componentType":5126,
			"count":60,
			"max":[
				1.2574087381362915,
				0.00263986736536026,
				1.3084100484848022
			],
			"min":[
				-1.2495596408843994,
				-0.0022733116056770086,
				-1.2920126914978027
			],
			"type":"VEC3"
		},
		{
			"bufferView":50,
			"componentType":5126,
			"count":60,
			"type":"VEC3"
		},
		{
			"bufferView":51,
			"componentType":5126,
			"count":60,
			"type":"VEC2"
		},
		{
			"bufferView":52,
			"componentType":5123,
			"count":90,
			"type":"SCALAR"
		},
		{
			"bufferView":53,
			"componentType":5126,
			"count":16,
			"type":"VEC4"
		},
		{
			"bufferView":54,
			"componentType":5126,
			"count":16,
			"max":[
				0.5104165077209473,
				0,
				0.5104163289070129
			],
			"min":[
				-0.5104165077209473,
				0,
				-0.5104163289070129
			],
			"type":"VEC3"
		},
		{
			"bufferView":55,
			"componentType":5126,
			"count":16,
			"type":"VEC3"
		},
		{
			"bufferView":56,
			"componentType":5126,
			"count":16,
			"type":"VEC2"
		},
		{
			"bufferView":57,
			"componentType":5123,
			"count":42,
			"type":"SCALAR"
		},
		{
			"bufferView":58,
			"componentType":5126,
			"count":144,
			"type":"VEC4"
		},
		{
			"bufferView":59,
			"componentType":5126,
			"count":144,
			"max":[
				0.49242687225341797,
				0,
				0.5096250176429749
			],
			"min":[
				-0.517064094543457,
				0,
				-0.48987969756126404
			],
			"type":"VEC3"
		},
		{
			"bufferView":60,
			"componentType":5126,
			"count":144,
			"type":"VEC3"
		},
		{
			"bufferView":61,
			"componentType":5126,
			"count":144,
			"type":"VEC2"
		},
		{
			"bufferView":62,
			"componentType":5123,
			"count":378,
			"type":"SCALAR"
		},
		{
			"bufferView":63,
			"componentType":5126,
			"count":8,
			"type":"VEC4"
		},
		{
			"bufferView":64,
			"componentType":5126,
			"count":8,
			"max":[
				0.1928938329219818,
				0.04053710401058197,
				0.1928938627243042
			],
			"min":[
				-0.1928938329219818,
				-0.028401315212249756,
				-0.1928938627243042
			],
			"type":"VEC3"
		},
		{
			"bufferView":65,
			"componentType":5126,
			"count":8,
			"type":"VEC3"
		},
		{
			"bufferView":66,
			"componentType":5126,
			"count":8,
			"type":"VEC2"
		},
		{
			"bufferView":67,
			"componentType":5123,
			"count":12,
			"type":"SCALAR"
		},
		{
			"bufferView":68,
			"componentType":5126,
			"count":18,
			"type":"VEC4"
		},
		{
			"bufferView":69,
			"componentType":5126,
			"count":18,
			"max":[
				0.28476595878601074,
				0.06528463214635849,
				0.28476592898368835
			],
			"min":[
				-0.2847658395767212,
				-0.0457400381565094,
				-0.28476592898368835
			],
			"type":"VEC3"
		},
		{
			"bufferView":70,
			"componentType":5126,
			"count":18,
			"type":"VEC3"
		},
		{
			"bufferView":71,
			"componentType":5126,
			"count":18,
			"type":"VEC2"
		},
		{
			"bufferView":72,
			"componentType":5123,
			"count":48,
			"type":"SCALAR"
		},
		{
			"bufferView":73,
			"componentType":5126,
			"count":6,
			"type":"VEC4"
		},
		{
			"bufferView":74,
			"componentType":5126,
			"count":6,
			"max":[
				0.33219993114471436,
				0.0587417334318161,
				0.26136314868927
			],
			"min":[
				-0.22711145877838135,
				-0.03277869150042534,
				-0.3628652095794678
			],
			"type":"VEC3"
		},
		{
			"bufferView":75,
			"componentType":5126,
			"count":6,
			"type":"VEC3"
		},
		{
			"bufferView":76,
			"componentType":5126,
			"count":6,
			"type":"VEC2"
		},
		{
			"bufferView":77,
			"componentType":5123,
			"count":6,
			"type":"SCALAR"
		}
	],
	"bufferViews":[
		{
			"buffer":0,
			"byteLength":192,
			"byteOffset":0,
			"target":34962
		},
		{
			"buffer":0,
			"byteLength":144,
			"byteOffset":192,
			"target":34962
		},
		{
			"buffer":0,
			"byteLength":144,
			"byteOffset":336,
			"target":34962
		},
		{
			"buffer":0,
			"byteLength":96,
			"byteOffset":480,
			"target":34962
		},
		{
			"buffer":0,
			"byteLength":24,
			"byteOffset":576,
			"target":34963
		},
		{
			"buffer":0,
			"byteLength":192,
			"byteOffset":600,
			"target":34962
		},
		{
			"buffer":0,
			"byteLength":144,
			"byteOffset":792,
			"target":34962
		},
		{
			"buffer":0,
			"byteLength":144,
			"byteOffset":936,
			"target":34962
		},
		{
			"buffer":0,
			"byteLength":96,
			"byteOffset":1080,
			"target":34962
		},
		{
			"buffer":0,
			"byteLength":240,
			"byteOffset":1176,
			"target":34962
		},
		{
			"buffer":0,
			"byteLength":180,
			"byteOffset":1416,
			"target":34962
		},
		{
			"buffer":0,
			"byteLength":180,
			"byteOffset":1596,
			"target":34962
		},
		{
			"buffer":0,
			"byteLength":120,
			"byteOffset":1776,
			"target":34962
		},
		{
			"buffer":0,
			"byteLength":30,
			"byteOffset":1896,
			"target":34963
		},
		{
			"buffer":0,
			"byteLength":240,
			"byteOffset":1928,
			"target":34962
		},
		{
			"buffer":0,
			"byteLength":180,
			"byteOffset":2168,
			"target":34962
		},
		{
			"buffer":0,
			"byteLength":180,
			"byteOffset":2348,
			"target":34962
		},
		{
			"buffer":0,
			"byteLength":120,
			"byteOffset":2528,
			"target":34962
		},
		{
			"buffer":0,
			"byteLength":576,
			"byteOffset":2648,
			"target":34962
		},
		{
			"buffer":0,
			"byteLength":432,
			"byteOffset":3224,
			"target":34962
		},
		{
			"buffer":0,
			"byteLength":432,
			"byteOffset":3656,
			"target":34962
		},
		{
			"buffer":0,
			"byteLength":288,
			"byteOffset":4088,
			"target":34962
		},
		{
			"buffer":0,
			"byteLength":96,
			"byteOffset":4376,
			"target":34963
		},
		{
			"buffer":0,
			"byteLength":576,
			"byteOffset":4472,
			"target":34962
		},
		{
			"buffer":0,
			"byteLength":432,
			"byteOffset":5048,
			"target":34962
		},
		{
			"buffer":0,
			"byteLength":432,
			"byteOffset":5480,
			"target":34962
		},
		{
			"buffer":0,
			"byteLength":288,
			"byteOffset":5912,
			"target":34962
		},
		{
			"buffer":0,
			"byteLength":108,
			"byteOffset":6200,
			"target":34963
		},
		{
			"buffer":0,
			"byteLength":768,
			"byteOffset":6308,
			"target":34962
		},
		{
			"buffer":0,
			"byteLength":576,
			"byteOffset":7076,
			"target":34962
		},
		{
			"buffer":0,
			"byteLength":576,
			"byteOffset":7652,
			"target":34962
		},
		{
			"buffer":0,
			"byteLength":384,
			"byteOffset":8228,
			"target":34962
		},
		{
			"buffer":0,
			"byteLength":144,
			"byteOffset":8612,
			"target":34963
		},
		{
			"buffer":0,
			"byteLength":1536,
			"byteOffset":8756,
			"target":34962
		},
		{
			"buffer":0,
			"byteLength":1152,
			"byteOffset":10292,
			"target":34962
		},
		{
			"buffer":0,
			"byteLength":1152,
			"byteOffset":11444,
			"target":34962
		},
		{
			"buffer":0,
			"byteLength":768,
			"byteOffset":12596,
			"target":34962
		},
		{
			"buffer":0,
			"byteLength":264,
			"byteOffset":13364,
			"target":34963
		},
		{
			"buffer":0,
			"byteLength":320,
			"byteOffset":13628,
			"target":34962
		},
		{
			"buffer":0,
			"byteLength":240,
			"byteOffset":13948,
			"target":34962
		},
		{
			"buffer":0,
			"byteLength":240,
			"byteOffset":14188,
			"target":34962
		},
		{
			"buffer":0,
			"byteLength":160,
			"byteOffset":14428,
			"target":34962
		},
		{
			"buffer":0,
			"byteLength":72,
			"byteOffset":14588,
			"target":34963
		},
		{
			"buffer":0,
			"byteLength":416,
			"byteOffset":14660,
			"target":34962
		},
		{
			"buffer":0,
			"byteLength":312,
			"byteOffset":15076,
			"target":34962
		},
		{
			"buffer":0,
			"byteLength":312,
			"byteOffset":15388,
			"target":34962
		},
		{
			"buffer":0,
			"byteLength":208,
			"byteOffset":15700,
			"target":34962
		},
		{
			"buffer":0,
			"byteLength":96,
			"byteOffset":15908,
			"target":34963
		},
		{
			"buffer":0,
			"byteLength":960,
			"byteOffset":16004,
			"target":34962
		},
		{
			"buffer":0,
			"byteLength":720,
			"byteOffset":16964,
			"target":34962
		},
		{
			"buffer":0,
			"byteLength":720,
			"byteOffset":17684,
			"target":34962
		},
		{
			"buffer":0,
			"byteLength":480,
			"byteOffset":18404,
			"target":34962
		},
		{
			"buffer":0,
			"byteLength":180,
			"byteOffset":18884,
			"target":34963
		},
		{
			"buffer":0,
			"byteLength":256,
			"byteOffset":19064,
			"target":34962
		},
		{
			"buffer":0,
			"byteLength":192,
			"byteOffset":19320,
			"target":34962
		},
		{
			"buffer":0,
			"byteLength":192,
			"byteOffset":19512,
			"target":34962
		},
		{
			"buffer":0,
			"byteLength":128,
			"byteOffset":19704,
			"target":34962
		},
		{
			"buffer":0,
			"byteLength":84,
			"byteOffset":19832,
			"target":34963
		},
		{
			"buffer":0,
			"byteLength":2304,
			"byteOffset":19916,
			"target":34962
		},
		{
			"buffer":0,
			"byteLength":1728,
			"byteOffset":22220,
			"target":34962
		},
		{
			"buffer":0,
			"byteLength":1728,
			"byteOffset":23948,
			"target":34962
		},
		{
			"buffer":0,
			"byteLength":1152,
			"byteOffset":25676,
			"target":34962
		},
		{
			"buffer":0,
			"byteLength":756,
			"byteOffset":26828,
			"target":34963
		},
		{
			"buffer":0,
			"byteLength":128,
			"byteOffset":27584,
			"target":34962
		},
		{
			"buffer":0,
			"byteLength":96,
			"byteOffset":27712,
			"target":34962
		},
		{
			"buffer":0,
			"byteLength":96,
			"byteOffset":27808,
			"target":34962
		},
		{
			"buffer":0,
			"byteLength":64,
			"byteOffset":27904,
			"target":34962
		},
		{
			"buffer":0,
			"byteLength":24,
			"byteOffset":27968,
			"target":34963
		},
		{
			"buffer":0,
			"byteLength":288,
			"byteOffset":27992,
			"target":34962
		},
		{
			"buffer":0,
			"byteLength":216,
			"byteOffset":28280,
			"target":34962
		},
		{
			"buffer":0,
			"byteLength":216,
			"byteOffset":28496,
			"target":34962
		},
		{
			"buffer":0,
			"byteLength":144,
			"byteOffset":28712,
			"target":34962
		},
		{
			"buffer":0,
			"byteLength":96,
			"byteOffset":28856,
			"target":34963
		},
		{
			"buffer":0,
			"byteLength":96,
			"byteOffset":28952,
			"target":34962
		},
		{
			"buffer":0,
			"byteLength":72,
			"byteOffset":29048,
			"target":34962
		},
		{
			"buffer":0,
			"byteLength":72,
			"byteOffset":29120,
			"target":34962
		},
		{
			"buffer":0,
			"byteLength":48,
			"byteOffset":29192,
			"target":34962
		},
		{
			"buffer":0,
			"byteLength":12,
			"byteOffset":29240,
			"target":34963
		}
	],
	"buffers":[
		{
			"byteLength":29252,
			"uri":"data:application/octet-stream;base64,"
		}
	]
}
