{
	"asset":{
		"generator":"Khronos glTF Blender I/O v3.6.27",
		"version":"2.0"
	},
	"scene":0,
	"scenes":[
		{
			"name":"Scene",
			"nodes":[
				0,
				1,
				2,
				3,
				4,
				5,
				6,
				7,
				8,
				9,
				10,
				11,
				12,
				13,
				14,
				15,
				16
			]
		}
	],
	"nodes":[
		{
			"mesh":0,
			"name":"Ground",
			"scale":[
				-8.974349021911621,
				-8.974349021911621,
				-8.974349021911621
			]
		},
		{
			"mesh":1,
			"name":"Grass1"
		},
		{
			"mesh":2,
			"name":"Grass2"
		},
		{
			"mesh":3,
			"name":"Grass3"
		},
		{
			"mesh":4,
			"name":"Grass4"
		},
		{
			"mesh":5,
			"name":"Player"
		},
		{
			"mesh":6,
			"name":"RoadTile"
		},
		{
			"mesh":7,
			"name":"RoadTile2"
		},
		{
			"mesh":8,
			"name":"LumberingDevil"
		},
		{
			"mesh":9,
			"name":"Checkpoint"
		},
		{
			"mesh":10,
			"name":"Person"
		},
		{
			"mesh":11,
			"name":"Pentagram"
		},
		{
			"mesh":12,
			"name":"Shadow"
		},
		{
			"mesh":13,
			"name":"Shadow.001"
		},
		{
			"mesh":14,
			"name":"Trunk"
		},
		{
			"mesh":15,
			"name":"Trunk2"
		},
		{
			"mesh":16,
			"name":"Trunk3"
		}
	],
	"meshes":[
		{
			"name":"Plane",
			"primitives":[
				{
					"attributes":{
						"COLOR_0":0,
						"POSITION":1,
						"NORMAL":2,
						"TEXCOORD_0":3
					},
					"indices":4
				}
			]
		},
		{
			"name":"Plane.001",
			"primitives":[
				{
					"attributes":{
						"COLOR_0":5,
						"POSITION":6,
						"NORMAL":7,
						"TEXCOORD_0":8
					},
					"indices":9
				}
			]
		},
		{
			"name":"Plane.002",
			"primitives":[
				{
					"attributes":{
						"COLOR_0":10,
						"POSITION":11,
						"NORMAL":12,
						"TEXCOORD_0":13
					},
					"indices":9
				}
			]
		},
		{
			"name":"Plane.003",
			"primitives":[
				{
					"attributes":{
						"COLOR_0":14,
						"POSITION":15,
						"NORMAL":16,
						"TEXCOORD_0":17
					},
					"indices":18
				}
			]
		},
		{
			"name":"Plane.004",
			"primitives":[
				{
					"attributes":{
						"COLOR_0":19,
						"POSITION":20,
						"NORMAL":21,
						"TEXCOORD_0":22
					},
					"indices":18
				}
			]
		},
		{
			"name":"Plane.006",
			"primitives":[
				{
					"attributes":{
						"COLOR_0":23,
						"POSITION":24,
						"NORMAL":25,
						"TEXCOORD_0":26
					},
					"indices":27
				}
			]
		},
		{
			"name":"Plane.007",
			"primitives":[
				{
					"attributes":{
						"COLOR_0":28,
						"POSITION":29,
						"NORMAL":30,
						"TEXCOORD_0":31
					},
					"indices":32
				}
			]
		},
		{
			"name":"Plane.008",
			"primitives":[
				{
					"attributes":{
						"COLOR_0":33,
						"POSITION":34,
						"NORMAL":35,
						"TEXCOORD_0":36
					},
					"indices":37
				}
			]
		},
		{
			"name":"Plane.010",
			"primitives":[
				{
					"attributes":{
						"COLOR_0":38,
						"POSITION":39,
						"NORMAL":40,
						"TEXCOORD_0":41
					},
					"indices":42
				}
			]
		},
		{
			"name":"Plane.011",
			"primitives":[
				{
					"attributes":{
						"COLOR_0":43,
						"POSITION":44,
						"NORMAL":45,
						"TEXCOORD_0":46
					},
					"indices":47
				}
			]
		},
		{
			"name":"Plane.012",
			"primitives":[
				{
					"attributes":{
						"COLOR_0":48,
						"POSITION":49,
						"NORMAL":50,
						"TEXCOORD_0":51
					},
					"indices":52
				}
			]
		},
		{
			"name":"Plane.014",
			"primitives":[
				{
					"attributes":{
						"COLOR_0":53,
						"POSITION":54,
						"NORMAL":55,
						"TEXCOORD_0":56
					},
					"indices":57
				}
			]
		},
		{
			"name":"Circle",
			"primitives":[
				{
					"attributes":{
						"COLOR_0":58,
						"POSITION":59,
						"NORMAL":60,
						"TEXCOORD_0":61
					},
					"indices":62
				}
			]
		},
		{
			"name":"Circle.001",
			"primitives":[
				{
					"attributes":{
						"COLOR_0":63,
						"POSITION":64,
						"NORMAL":65,
						"TEXCOORD_0":66
					},
					"indices":67
				}
			]
		},
		{
			"name":"Plane.016",
			"primitives":[
				{
					"attributes":{
						"COLOR_0":68,
						"POSITION":69,
						"NORMAL":70,
						"TEXCOORD_0":71
					},
					"indices":72
				}
			]
		},
		{
			"name":"Mesh",
			"primitives":[
				{
					"attributes":{
						"COLOR_0":73,
						"POSITION":74,
						"NORMAL":75,
						"TEXCOORD_0":76
					},
					"indices":77
				}
			]
		},
		{
			"name":"Plane.018",
			"primitives":[
				{
					"attributes":{
						"COLOR_0":78,
						"POSITION":79,
						"NORMAL":80,
						"TEXCOORD_0":81
					},
					"indices":82
				}
			]
		}
	],
	"accessors":[
		{
			"bufferView":0,
			"componentType":5126,
			"count":4,
			"type":"VEC4"
		},
		{
			"bufferView":1,
			"componentType":5126,
			"count":4,
			"max":[
				1,
				0,
				1
			],
			"min":[
				-1,
				0,
				-1
			],
			"type":"VEC3"
		},
		{
			"bufferView":2,
			"componentType":5126,
			"count":4,
			"type":"VEC3"
		},
		{
			"bufferView":3,
			"componentType":5126,
			"count":4,
			"type":"VEC2"
		},
		{
			"bufferView":4,
			"componentType":5123,
			"count":6,
			"type":"SCALAR"
		},
		{
			"bufferView":5,
			"componentType":5126,
			"count":12,
			"type":"VEC4"
		},
		{
			"bufferView":6,
			"componentType":5126,
			"count":12,
			"max":[
				0.18146170675754547,
				0.01699955388903618,
				0.1915781944990158
			],
			"min":[
				-0.18896542489528656,
				-0.05854526534676552,
				-0.42394134402275085
			],
			"type":"VEC3"
		},
		{
			"bufferView":7,
			"componentType":5126,
			"count":12,
			"type":"VEC3"
		},
		{
			"bufferView":8,
			"componentType":5126,
			"count":12,
			"type":"VEC2"
		},
		{
			"bufferView":9,
			"componentType":5123,
			"count":12,
			"type":"SCALAR"
		},
		{
			"bufferView":10,
			"componentType":5126,
			"count":12,
			"type":"VEC4"
		},
		{
			"bufferView":11,
			"componentType":5126,
			"count":12,
			"max":[
				0.1439092457294464,
				0.023662663996219635,
				0.20342743396759033
			],
			"min":[
				-0.1665303111076355,
				-0.05263618379831314,
				-0.48506027460098267
			],
			"type":"VEC3"
		},
		{
			"bufferView":12,
			"componentType":5126,
			"count":12,
			"type":"VEC3"
		},
		{
			"bufferView":13,
			"componentType":5126,
			"count":12,
			"type":"VEC2"
		},
		{
			"bufferView":14,
			"componentType":5126,
			"count":15,
			"type":"VEC4"
		},
		{
			"bufferView":15,
			"componentType":5126,
			"count":15,
			"max":[
				0.18026867508888245,
				0.02984326332807541,
				0.17119744420051575
			],
			"min":[
				-0.1963673233985901,
				-0.04645558446645737,
				-0.4105767607688904
			],
			"type":"VEC3"
		},
		{
			"bufferView":16,
			"componentType":5126,
			"count":15,
			"type":"VEC3"
		},
		{
			"bufferView":17,
			"componentType":5126,
			"count":15,
			"type":"VEC2"
		},
		{
			"bufferView":18,
			"componentType":5123,
			"count":15,
			"type":"SCALAR"
		},
		{
			"bufferView":19,
			"componentType":5126,
			"count":15,
			"type":"VEC4"
		},
		{
			"bufferView":20,
			"componentType":5126,
			"count":15,
			"max":[
				0.19571290910243988,
				0.025455985218286514,
				0.16229858994483948
			],
			"min":[
				-0.2123580425977707,
				-0.042856618762016296,
				-0.335432767868042
			],
			"type":"VEC3"
		},
		{
			"bufferView":21,
			"componentType":5126,
			"count":15,
			"type":"VEC3"
		},
		{
			"bufferView":22,
			"componentType":5126,
			"count":15,
			"type":"VEC2"
		},
		{
			"bufferView":23,
			"componentType":5126,
			"count":36,
			"type":"VEC4"
		},
		{
			"bufferView":24,
			"componentType":5126,
			"count":36,
			"max":[
				0.35471925139427185,
				0.32306671142578125,
				0.1692194640636444
			],
			"min":[
				-0.35471925139427185,
				0.18004636466503143,
				-0.12484832108020782
			],
			"type":"VEC3"
		},
		{
			"bufferView":25,
			"componentType":5126,
			"count":36,
			"type":"VEC3"
		},
		{
			"bufferView":26,
			"componentType":5126,
			"count":36,
			"type":"VEC2"
		},
		{
			"bufferView":27,
			"componentType":5123,
			"count":48,
			"type":"SCALAR"
		},
		{
			"bufferView":28,
			"componentType":5126,
			"count":36,
			"type":"VEC4"
		},
		{
			"bufferView":29,
			"componentType":5126,
			"count":36,
			"max":[
				0.170623779296875,
				0,
				0.17797034978866577
			],
			"min":[
				-0.21879468858242035,
				0,
				-0.1545991152524948
			],
			"type":"VEC3"
		},
		{
			"bufferView":30,
			"componentType":5126,
			"count":36,
			"type":"VEC3"
		},
		{
			"bufferView":31,
			"componentType":5126,
			"count":36,
			"type":"VEC2"
		},
		{
			"bufferView":32,
			"componentType":5123,
			"count":54,
			"type":"SCALAR"
		},
		{
			"bufferView":33,
			"componentType":5126,
			"count":48,
			"type":"VEC4"
		},
		{
			"bufferView":34,
			"componentType":5126,
			"count":48,
			"max":[
				0.15949834883213043,
				0,
				0.18310613930225372
			],
			"min":[
				-0.2345610409975052,
				0,
				-0.16313321888446808
			],
			"type":"VEC3"
		},
		{
			"bufferView":35,
			"componentType":5126,
			"count":48,
			"type":"VEC3"
		},
		{
			"bufferView":36,
			"componentType":5126,
			"count":48,
			"type":"VEC2"
		},
		{
			"bufferView":37,
			"componentType":5123,
			"count":72,
			"type":"SCALAR"
		},
		{
			"bufferView":38,
			"componentType":5126,
			"count":96,
			"type":"VEC4"
		},
		{
			"bufferView":39,
			"componentType":5126,
			"count":96,
			"max":[
				0.4367517828941345,
				0.32306671142578125,
				0.40275388956069946
			],
			"min":[
				-0.4367517828941345,
				0.1691875457763672,
				-0.09318443387746811
			],
			"type":"VEC3"
		},
		{
			"bufferView":40,
			"componentType":5126,
			"count":96,
			"type":"VEC3"
		},
		{
			"bufferView":41,
			"componentType":5126,
			"count":96,
			"type":"VEC2"
		},
		{
			"bufferView":42,
			"componentType":5123,
			"count":132,
			"type":"SCALAR"
		},
		{
			"bufferView":43,
			"componentType":5126,
			"count":20,
			"type":"VEC4"
		},
		{
			"bufferView":44,
			"componentType":5126,
			"count":20,
			"max":[
				0.0589255765080452,
				0.04761524870991707,
				0.08592899888753891
			],
			"min":[
				-0.05892554670572281,
				0.04291295260190964,
				-0.08592895418405533
			],
			"type":"VEC3"
		},
		{
			"bufferView":45,
			"componentType":5126,
			"count":20,
			"type":"VEC3"
		},
		{
			"bufferView":46,
			"componentType":5126,
			"count":20,
			"type":"VEC2"
		},
		{
			"bufferView":47,
			"componentType":5123,
			"count":36,
			"type":"SCALAR"
		},
		{
			"bufferView":48,
			"componentType":5126,
			"count":26,
			"type":"VEC4"
		},
		{
			"bufferView":49,
			"componentType":5126,
			"count":26,
			"max":[
				0.17987555265426636,
				0.2916412949562073,
				0.07853927463293076
			],
			"min":[
				-0.17987555265426636,
				0.17864210903644562,
				-0.08254095166921616
			],
			"type":"VEC3"
		},
		{
			"bufferView":50,
			"componentType":5126,
			"count":26,
			"type":"VEC3"
		},
		{
			"bufferView":51,
			"componentType":5126,
			"count":26,
			"type":"VEC2"
		},
		{
			"bufferView":52,
			"componentType":5123,
			"count":48,
			"type":"SCALAR"
		},
		{
			"bufferView":53,
			"componentType":5126,
			"count":60,
			"type":"VEC4"
		},
		{
			"bufferView":54,
			"componentType":5126,
			"count":60,
			"max":[
				0.7312416434288025,
				0.0015352062182500958,
				0.7609015703201294
			],
			"min":[
				-0.7266775965690613,
				-0.0013220369582995772,
				-0.7513657212257385
			],
			"type":"VEC3"
		},
		{
			"bufferView":55,
			"componentType":5126,
			"count":60,
			"type":"VEC3"
		},
		{
			"bufferView":56,
			"componentType":5126,
			"count":60,
			"type":"VEC2"
		},
		{
			"bufferView":57,
			"componentType":5123,
			"count":90,
			"type":"SCALAR"
		},
		{
			"bufferView":58,
			"componentType":5126,
			"count":16,
			"type":"VEC4"
		},
		{
			"bufferView":59,
			"componentType":5126,
			"count":16,
			"max":[
				1,
				0,
				1
			],
			"min":[
				-1,
				0,
				-1
			],
			"type":"VEC3"
		},
		{
			"bufferView":60,
			"componentType":5126,
			"count":16,
			"type":"VEC3"
		},
		{
			"bufferView":61,
			"componentType":5126,
			"count":16,
			"type":"VEC2"
		},
		{
			"bufferView":62,
			"componentType":5123,
			"count":42,
			"type":"SCALAR"
		},
		{
			"bufferView":63,
			"componentType":5126,
			"count":144,
			"type":"VEC4"
		},
		{
			"bufferView":64,
			"componentType":5126,
			"count":144,
			"max":[
				0.977573037147522,
				0,
				0.9552320241928101
			],
			"min":[
				-0.9234704971313477,
				0,
				-0.9270062446594238
			],
			"type":"VEC3"
		},
		{
			"bufferView":65,
			"componentType":5126,
			"count":144,
			"type":"VEC3"
		},
		{
			"bufferView":66,
			"componentType":5126,
			"count":144,
			"type":"VEC2"
		},
		{
			"bufferView":67,
			"componentType":5123,
			"count":378,
			"type":"SCALAR"
		},
		{
			"bufferView":68,
			"componentType":5126,
			"count":8,
			"type":"VEC4"
		},
		{
			"bufferView":69,
			"componentType":5126,
			"count":8,
			"max":[
				0.1396859884262085,
				0.07473723590373993,
				0.1396859884262085
			],
			"min":[
				-0.1396859884262085,
				0.024814793840050697,
				-0.1396859884262085
			],
			"type":"VEC3"
		},
		{
			"bufferView":70,
			"componentType":5126,
			"count":8,
			"type":"VEC3"
		},
		{
			"bufferView":71,
			"componentType":5126,
			"count":8,
			"type":"VEC2"
		},
		{
			"bufferView":72,
			"componentType":5123,
			"count":12,
			"type":"SCALAR"
		},
		{
			"bufferView":73,
			"componentType":5126,
			"count":18,
			"type":"VEC4"
		},
		{
			"bufferView":74,
			"componentType":5126,
			"count":18,
			"max":[
				0.12804549932479858,
				0.07473724335432053,
				0.12804549932479858
			],
			"min":[
				-0.12804549932479858,
				0.024814795702695847,
				-0.12804549932479858
			],
			"type":"VEC3"
		},
		{
			"bufferView":75,
			"componentType":5126,
			"count":18,
			"type":"VEC3"
		},
		{
			"bufferView":76,
			"componentType":5126,
			"count":18,
			"type":"VEC2"
		},
		{
			"bufferView":77,
			"componentType":5123,
			"count":48,
			"type":"SCALAR"
		},
		{
			"bufferView":78,
			"componentType":5126,
			"count":6,
			"type":"VEC4"
		},
		{
			"bufferView":79,
			"componentType":5126,
			"count":6,
			"max":[
				0.18112656474113464,
				0.07473723590373993,
				0.1802426278591156
			],
			"min":[
				-0.12396585941314697,
				0.024814793840050697,
				-0.1602606475353241
			],
			"type":"VEC3"
		},
		{
			"bufferView":80,
			"componentType":5126,
			"count":6,
			"type":"VEC3"
		},
		{
			"bufferView":81,
			"componentType":5126,
			"count":6,
			"type":"VEC2"
		},
		{
			"bufferView":82,
			"componentType":5123,
			"count":6,
			"type":"SCALAR"
		}
	],
	"bufferViews":[
		{
			"buffer":0,
			"byteLength":64,
			"byteOffset":0,
			"target":34962
		},
		{
			"buffer":0,
			"byteLength":48,
			"byteOffset":64,
			"target":34962
		},
		{
			"buffer":0,
			"byteLength":48,
			"byteOffset":112,
			"target":34962
		},
		{
			"buffer":0,
			"byteLength":32,
			"byteOffset":160,
			"target":34962
		},
		{
			"buffer":0,
			"byteLength":12,
			"byteOffset":192,
			"target":34963
		},
		{
			"buffer":0,
			"byteLength":192,
			"byteOffset":204,
			"target":34962
		},
		{
			"buffer":0,
			"byteLength":144,
			"byteOffset":396,
			"target":34962
		},
		{
			"buffer":0,
			"byteLength":144,
			"byteOffset":540,
			"target":34962
		},
		{
			"buffer":0,
			"byteLength":96,
			"byteOffset":684,
			"target":34962
		},
		{
			"buffer":0,
			"byteLength":24,
			"byteOffset":780,
			"target":34963
		},
		{
			"buffer":0,
			"byteLength":192,
			"byteOffset":804,
			"target":34962
		},
		{
			"buffer":0,
			"byteLength":144,
			"byteOffset":996,
			"target":34962
		},
		{
			"buffer":0,
			"byteLength":144,
			"byteOffset":1140,
			"target":34962
		},
		{
			"buffer":0,
			"byteLength":96,
			"byteOffset":1284,
			"target":34962
		},
		{
			"buffer":0,
			"byteLength":240,
			"byteOffset":1380,
			"target":34962
		},
		{
			"buffer":0,
			"byteLength":180,
			"byteOffset":1620,
			"target":34962
		},
		{
			"buffer":0,
			"byteLength":180,
			"byteOffset":1800,
			"target":34962
		},
		{
			"buffer":0,
			"byteLength":120,
			"byteOffset":1980,
			"target":34962
		},
		{
			"buffer":0,
			"byteLength":30,
			"byteOffset":2100,
			"target":34963
		},
		{
			"buffer":0,
			"byteLength":240,
			"byteOffset":2132,
			"target":34962
		},
		{
			"buffer":0,
			"byteLength":180,
			"byteOffset":2372,
			"target":34962
		},
		{
			"buffer":0,
			"byteLength":180,
			"byteOffset":2552,
			"target":34962
		},
		{
			"buffer":0,
			"byteLength":120,
			"byteOffset":2732,
			"target":34962
		},
		{
			"buffer":0,
			"byteLength":576,
			"byteOffset":2852,
			"target":34962
		},
		{
			"buffer":0,
			"byteLength":432,
			"byteOffset":3428,
			"target":34962
		},
		{
			"buffer":0,
			"byteLength":432,
			"byteOffset":3860,
			"target":34962
		},
		{
			"buffer":0,
			"byteLength":288,
			"byteOffset":4292,
			"target":34962
		},
		{
			"buffer":0,
			"byteLength":96,
			"byteOffset":4580,
			"target":34963
		},
		{
			"buffer":0,
			"byteLength":576,
			"byteOffset":4676,
			"target":34962
		},
		{
			"buffer":0,
			"byteLength":432,
			"byteOffset":5252,
			"target":34962
		},
		{
			"buffer":0,
			"byteLength":432,
			"byteOffset":5684,
			"target":34962
		},
		{
			"buffer":0,
			"byteLength":288,
			"byteOffset":6116,
			"target":34962
		},
		{
			"buffer":0,
			"byteLength":108,
			"byteOffset":6404,
			"target":34963
		},
		{
			"buffer":0,
			"byteLength":768,
			"byteOffset":6512,
			"target":34962
		},
		{
			"buffer":0,
			"byteLength":576,
			"byteOffset":7280,
			"target":34962
		},
		{
			"buffer":0,
			"byteLength":576,
			"byteOffset":7856,
			"target":34962
		},
		{
			"buffer":0,
			"byteLength":384,
			"byteOffset":8432,
			"target":34962
		},
		{
			"buffer":0,
			"byteLength":144,
			"byteOffset":8816,
			"target":34963
		},
		{
			"buffer":0,
			"byteLength":1536,
			"byteOffset":8960,
			"target":34962
		},
		{
			"buffer":0,
			"byteLength":1152,
			"byteOffset":10496,
			"target":34962
		},
		{
			"buffer":0,
			"byteLength":1152,
			"byteOffset":11648,
			"target":34962
		},
		{
			"buffer":0,
			"byteLength":768,
			"byteOffset":12800,
			"target":34962
		},
		{
			"buffer":0,
			"byteLength":264,
			"byteOffset":13568,
			"target":34963
		},
		{
			"buffer":0,
			"byteLength":320,
			"byteOffset":13832,
			"target":34962
		},
		{
			"buffer":0,
			"byteLength":240,
			"byteOffset":14152,
			"target":34962
		},
		{
			"buffer":0,
			"byteLength":240,
			"byteOffset":14392,
			"target":34962
		},
		{
			"buffer":0,
			"byteLength":160,
			"byteOffset":14632,
			"target":34962
		},
		{
			"buffer":0,
			"byteLength":72,
			"byteOffset":14792,
			"target":34963
		},
		{
			"buffer":0,
			"byteLength":416,
			"byteOffset":14864,
			"target":34962
		},
		{
			"buffer":0,
			"byteLength":312,
			"byteOffset":15280,
			"target":34962
		},
		{
			"buffer":0,
			"byteLength":312,
			"byteOffset":15592,
			"target":34962
		},
		{
			"buffer":0,
			"byteLength":208,
			"byteOffset":15904,
			"target":34962
		},
		{
			"buffer":0,
			"byteLength":96,
			"byteOffset":16112,
			"target":34963
		},
		{
			"buffer":0,
			"byteLength":960,
			"byteOffset":16208,
			"target":34962
		},
		{
			"buffer":0,
			"byteLength":720,
			"byteOffset":17168,
			"target":34962
		},
		{
			"buffer":0,
			"byteLength":720,
			"byteOffset":17888,
			"target":34962
		},
		{
			"buffer":0,
			"byteLength":480,
			"byteOffset":18608,
			"target":34962
		},
		{
			"buffer":0,
			"byteLength":180,
			"byteOffset":19088,
			"target":34963
		},
		{
			"buffer":0,
			"byteLength":256,
			"byteOffset":19268,
			"target":34962
		},
		{
			"buffer":0,
			"byteLength":192,
			"byteOffset":19524,
			"target":34962
		},
		{
			"buffer":0,
			"byteLength":192,
			"byteOffset":19716,
			"target":34962
		},
		{
			"buffer":0,
			"byteLength":128,
			"byteOffset":19908,
			"target":34962
		},
		{
			"buffer":0,
			"byteLength":84,
			"byteOffset":20036,
			"target":34963
		},
		{
			"buffer":0,
			"byteLength":2304,
			"byteOffset":20120,
			"target":34962
		},
		{
			"buffer":0,
			"byteLength":1728,
			"byteOffset":22424,
			"target":34962
		},
		{
			"buffer":0,
			"byteLength":1728,
			"byteOffset":24152,
			"target":34962
		},
		{
			"buffer":0,
			"byteLength":1152,
			"byteOffset":25880,
			"target":34962
		},
		{
			"buffer":0,
			"byteLength":756,
			"byteOffset":27032,
			"target":34963
		},
		{
			"buffer":0,
			"byteLength":128,
			"byteOffset":27788,
			"target":34962
		},
		{
			"buffer":0,
			"byteLength":96,
			"byteOffset":27916,
			"target":34962
		},
		{
			"buffer":0,
			"byteLength":96,
			"byteOffset":28012,
			"target":34962
		},
		{
			"buffer":0,
			"byteLength":64,
			"byteOffset":28108,
			"target":34962
		},
		{
			"buffer":0,
			"byteLength":24,
			"byteOffset":28172,
			"target":34963
		},
		{
			"buffer":0,
			"byteLength":288,
			"byteOffset":28196,
			"target":34962
		},
		{
			"buffer":0,
			"byteLength":216,
			"byteOffset":28484,
			"target":34962
		},
		{
			"buffer":0,
			"byteLength":216,
			"byteOffset":28700,
			"target":34962
		},
		{
			"buffer":0,
			"byteLength":144,
			"byteOffset":28916,
			"target":34962
		},
		{
			"buffer":0,
			"byteLength":96,
			"byteOffset":29060,
			"target":34963
		},
		{
			"buffer":0,
			"byteLength":96,
			"byteOffset":29156,
			"target":34962
		},
		{
			"buffer":0,
			"byteLength":72,
			"byteOffset":29252,
			"target":34962
		},
		{
			"buffer":0,
			"byteLength":72,
			"byteOffset":29324,
			"target":34962
		},
		{
			"buffer":0,
			"byteLength":48,
			"byteOffset":29396,
			"target":34962
		},
		{
			"buffer":0,
			"byteLength":12,
			"byteOffset":29444,
			"target":34963
		}
	],
	"buffers":[
		{
			"byteLength":29456,
			"uri":"data:application/octet-stream;base64,"
		}
	]
}
