{
	"asset":{
		"generator":"Khronos glTF Blender I/O v3.6.27",
		"version":"2.0"
	},
	"scene":0,
	"scenes":[
		{
			"name":"Scene",
			"nodes":[
				0,
				1,
				2,
				3,
				4,
				5,
				6,
				7,
				8,
				9,
				10,
				11,
				12,
				13,
				14,
				15
			]
		}
	],
	"nodes":[
		{
			"mesh":0,
			"name":"Grass1",
			"translation":[
				2.8080146312713623,
				0,
				-1.6584826707839966
			]
		},
		{
			"mesh":1,
			"name":"Grass2",
			"translation":[
				3.308959722518921,
				0,
				-1.6628745794296265
			]
		},
		{
			"mesh":2,
			"name":"Grass3",
			"translation":[
				2.050405502319336,
				0,
				-1.662124514579773
			]
		},
		{
			"mesh":3,
			"name":"Grass4",
			"translation":[
				3.8117759227752686,
				0,
				-1.6647642850875854
			]
		},
		{
			"mesh":4,
			"name":"Player",
			"translation":[
				1.6144905090332031,
				0,
				0.5951937437057495
			]
		},
		{
			"mesh":5,
			"name":"RoadTile",
			"translation":[
				-0.24947254359722137,
				0,
				0.6588853597640991
			]
		},
		{
			"mesh":6,
			"name":"RoadTile2",
			"translation":[
				-0.14770303666591644,
				0,
				-0.47707587480545044
			]
		},
		{
			"mesh":7,
			"name":"LumberingDevil",
			"translation":[
				4.025923728942871,
				0,
				0.12904733419418335
			]
		},
		{
			"mesh":8,
			"name":"Checkpoint",
			"translation":[
				3.9416751861572266,
				0,
				-2.4726293087005615
			]
		},
		{
			"mesh":9,
			"name":"Person",
			"translation":[
				1.6485244035720825,
				0,
				-0.5418423414230347
			]
		},
		{
			"mesh":10,
			"name":"Pentagram",
			"translation":[
				-2.4372551441192627,
				0,
				-0.16842134296894073
			]
		},
		{
			"mesh":11,
			"name":"Shadow",
			"translation":[
				-0.8033269047737122,
				0,
				-2.073395252227783
			]
		},
		{
			"mesh":12,
			"name":"Shadow.001",
			"translation":[
				0.6306138038635254,
				0,
				-2.059134006500244
			]
		},
		{
			"mesh":13,
			"name":"Trunk",
			"translation":[
				3.4071569442749023,
				0,
				-2.499046564102173
			]
		},
		{
			"mesh":14,
			"name":"Trunk2",
			"translation":[
				2.759160280227661,
				0,
				-2.529594898223877
			]
		},
		{
			"mesh":15,
			"name":"Trunk3",
			"translation":[
				2.0045814514160156,
				0,
				-2.4218251705169678
			]
		}
	],
	"meshes":[
		{
			"name":"Plane.001",
			"primitives":[
				{
					"attributes":{
						"COLOR_0":0,
						"POSITION":1,
						"NORMAL":2,
						"TEXCOORD_0":3
					},
					"indices":4
				}
			]
		},
		{
			"name":"Plane.002",
			"primitives":[
				{
					"attributes":{
						"COLOR_0":5,
						"POSITION":6,
						"NORMAL":7,
						"TEXCOORD_0":8
					},
					"indices":4
				}
			]
		},
		{
			"name":"Plane.003",
			"primitives":[
				{
					"attributes":{
						"COLOR_0":9,
						"POSITION":10,
						"NORMAL":11,
						"TEXCOORD_0":12
					},
					"indices":13
				}
			]
		},
		{
			"name":"Plane.004",
			"primitives":[
				{
					"attributes":{
						"COLOR_0":14,
						"POSITION":15,
						"NORMAL":16,
						"TEXCOORD_0":17
					},
					"indices":13
				}
			]
		},
		{
			"name":"Plane.006",
			"primitives":[
				{
					"attributes":{
						"COLOR_0":18,
						"POSITION":19,
						"NORMAL":20,
						"TEXCOORD_0":21
					},
					"indices":22
				}
			]
		},
		{
			"name":"Plane.007",
			"primitives":[
				{
					"attributes":{
						"COLOR_0":23,
						"POSITION":24,
						"NORMAL":25,
						"TEXCOORD_0":26
					},
					"indices":27
				}
			]
		},
		{
			"name":"Plane.008",
			"primitives":[
				{
					"attributes":{
						"COLOR_0":28,
						"POSITION":29,
						"NORMAL":30,
						"TEXCOORD_0":31
					},
					"indices":32
				}
			]
		},
		{
			"name":"Plane.010",
			"primitives":[
				{
					"attributes":{
						"COLOR_0":33,
						"POSITION":34,
						"NORMAL":35,
						"TEXCOORD_0":36
					},
					"indices":37
				}
			]
		},
		{
			"name":"Plane.011",
			"primitives":[
				{
					"attributes":{
						"COLOR_0":38,
						"POSITION":39,
						"NORMAL":40,
						"TEXCOORD_0":41
					},
					"indices":42
				}
			]
		},
		{
			"name":"Plane.012",
			"primitives":[
				{
					"attributes":{
						"COLOR_0":43,
						"POSITION":44,
						"NORMAL":45,
						"TEXCOORD_0":46
					},
					"indices":47
				}
			]
		},
		{
			"name":"Plane.014",
			"primitives":[
				{
					"attributes":{
						"COLOR_0":48,
						"POSITION":49,
						"NORMAL":50,
						"TEXCOORD_0":51
					},
					"indices":52
				}
			]
		},
		{
			"name":"Circle",
			"primitives":[
				{
					"attributes":{
						"COLOR_0":53,
						"POSITION":54,
						"NORMAL":55,
						"TEXCOORD_0":56
					},
					"indices":57
				}
			]
		},
		{
			"name":"Circle.001",
			"primitives":[
				{
					"attributes":{
						"COLOR_0":58,
						"POSITION":59,
						"NORMAL":60,
						"TEXCOORD_0":61
					},
					"indices":62
				}
			]
		},
		{
			"name":"Plane.016",
			"primitives":[
				{
					"attributes":{
						"COLOR_0":63,
						"POSITION":64,
						"NORMAL":65,
						"TEXCOORD_0":66
					},
					"indices":67
				}
			]
		},
		{
			"name":"Mesh",
			"primitives":[
				{
					"attributes":{
						"COLOR_0":68,
						"POSITION":69,
						"NORMAL":70,
						"TEXCOORD_0":71
					},
					"indices":72
				}
			]
		},
		{
			"name":"Plane.018",
			"primitives":[
				{
					"attributes":{
						"COLOR_0":73,
						"POSITION":74,
						"NORMAL":75,
						"TEXCOORD_0":76
					},
					"indices":77
				}
			]
		}
	],
	"accessors":[
		{
			"bufferView":0,
			"componentType":5126,
			"count":12,
			"type":"VEC4"
		},
		{
			"bufferView":1,
			"componentType":5126,
			"count":12,
			"max":[
				0.18146178126335144,
				0.0024911165237426758,
				0.19157817959785461
			],
			"min":[
				-0.18896546959877014,
				-0.008579373359680176,
				-0.42394134402275085
			],
			"type":"VEC3"
		},
		{
			"bufferView":2,
			"componentType":5126,
			"count":12,
			"type":"VEC3"
		},
		{
			"bufferView":3,
			"componentType":5126,
			"count":12,
			"type":"VEC2"
		},
		{
			"bufferView":4,
			"componentType":5123,
			"count":12,
			"type":"SCALAR"
		},
		{
			"bufferView":5,
			"componentType":5126,
			"count":12,
			"type":"VEC4"
		},
		{
			"bufferView":6,
			"componentType":5126,
			"count":12,
			"max":[
				0.14390923082828522,
				0.003467559814453125,
				0.20342740416526794
			],
			"min":[
				-0.16653035581111908,
				-0.007713437080383301,
				-0.48506036400794983
			],
			"type":"VEC3"
		},
		{
			"bufferView":7,
			"componentType":5126,
			"count":12,
			"type":"VEC3"
		},
		{
			"bufferView":8,
			"componentType":5126,
			"count":12,
			"type":"VEC2"
		},
		{
			"bufferView":9,
			"componentType":5126,
			"count":15,
			"type":"VEC4"
		},
		{
			"bufferView":10,
			"componentType":5126,
			"count":15,
			"max":[
				0.18026858568191528,
				0.0043732523918151855,
				0.17119738459587097
			],
			"min":[
				-0.19636744260787964,
				-0.006807684898376465,
				-0.41057685017585754
			],
			"type":"VEC3"
		},
		{
			"bufferView":11,
			"componentType":5126,
			"count":15,
			"type":"VEC3"
		},
		{
			"bufferView":12,
			"componentType":5126,
			"count":15,
			"type":"VEC2"
		},
		{
			"bufferView":13,
			"componentType":5123,
			"count":15,
			"type":"SCALAR"
		},
		{
			"bufferView":14,
			"componentType":5126,
			"count":15,
			"type":"VEC4"
		},
		{
			"bufferView":15,
			"componentType":5126,
			"count":15,
			"max":[
				0.19571419060230255,
				0.0037302374839782715,
				0.1622983068227768
			],
			"min":[
				-0.21235661208629608,
				-0.005865931510925293,
				-0.3354330062866211
			],
			"type":"VEC3"
		},
		{
			"bufferView":16,
			"componentType":5126,
			"count":15,
			"type":"VEC3"
		},
		{
			"bufferView":17,
			"componentType":5126,
			"count":15,
			"type":"VEC2"
		},
		{
			"bufferView":18,
			"componentType":5126,
			"count":44,
			"type":"VEC4"
		},
		{
			"bufferView":19,
			"componentType":5126,
			"count":44,
			"max":[
				0.8693763017654419,
				0.04013475775718689,
				0.3487938940525055
			],
			"min":[
				-0.8693763017654419,
				-0.01663544774055481,
				-0.37193235754966736
			],
			"type":"VEC3"
		},
		{
			"bufferView":20,
			"componentType":5126,
			"count":44,
			"type":"VEC3"
		},
		{
			"bufferView":21,
			"componentType":5126,
			"count":44,
			"type":"VEC2"
		},
		{
			"bufferView":22,
			"componentType":5123,
			"count":60,
			"type":"SCALAR"
		},
		{
			"bufferView":23,
			"componentType":5126,
			"count":36,
			"type":"VEC4"
		},
		{
			"bufferView":24,
			"componentType":5126,
			"count":36,
			"max":[
				0.5826588869094849,
				-5.960464477539063e-08,
				0.5027080178260803
			],
			"min":[
				-0.5018904209136963,
				-5.960464477539063e-08,
				-0.42351409792900085
			],
			"type":"VEC3"
		},
		{
			"bufferView":25,
			"componentType":5126,
			"count":36,
			"type":"VEC3"
		},
		{
			"bufferView":26,
			"componentType":5126,
			"count":36,
			"type":"VEC2"
		},
		{
			"bufferView":27,
			"componentType":5123,
			"count":54,
			"type":"SCALAR"
		},
		{
			"bufferView":28,
			"componentType":5126,
			"count":48,
			"type":"VEC4"
		},
		{
			"bufferView":29,
			"componentType":5126,
			"count":48,
			"max":[
				0.5619058609008789,
				5.960464477539063e-08,
				0.5037984251976013
			],
			"min":[
				-0.5355687141418457,
				5.960464477539063e-08,
				-0.4604949653148651
			],
			"type":"VEC3"
		},
		{
			"bufferView":30,
			"componentType":5126,
			"count":48,
			"type":"VEC3"
		},
		{
			"bufferView":31,
			"componentType":5126,
			"count":48,
			"type":"VEC2"
		},
		{
			"bufferView":32,
			"componentType":5123,
			"count":72,
			"type":"SCALAR"
		},
		{
			"bufferView":33,
			"componentType":5126,
			"count":104,
			"type":"VEC4"
		},
		{
			"bufferView":34,
			"componentType":5126,
			"count":104,
			"max":[
				1.2585234642028809,
				0.04519511014223099,
				0.8066443204879761
			],
			"min":[
				-1.2585234642028809,
				-0.019783159717917442,
				-0.6224278211593628
			],
			"type":"VEC3"
		},
		{
			"bufferView":35,
			"componentType":5126,
			"count":104,
			"type":"VEC3"
		},
		{
			"bufferView":36,
			"componentType":5126,
			"count":104,
			"type":"VEC2"
		},
		{
			"bufferView":37,
			"componentType":5123,
			"count":144,
			"type":"SCALAR"
		},
		{
			"bufferView":38,
			"componentType":5126,
			"count":20,
			"type":"VEC4"
		},
		{
			"bufferView":39,
			"componentType":5126,
			"count":20,
			"max":[
				0.12923140823841095,
				0.0008973479270935059,
				0.1884533315896988
			],
			"min":[
				-0.1292314976453781,
				-0.0006138980388641357,
				-0.1884535402059555
			],
			"type":"VEC3"
		},
		{
			"bufferView":40,
			"componentType":5126,
			"count":20,
			"type":"VEC3"
		},
		{
			"bufferView":41,
			"componentType":5126,
			"count":20,
			"type":"VEC2"
		},
		{
			"bufferView":42,
			"componentType":5123,
			"count":36,
			"type":"SCALAR"
		},
		{
			"bufferView":43,
			"componentType":5126,
			"count":34,
			"type":"VEC4"
		},
		{
			"bufferView":44,
			"componentType":5126,
			"count":34,
			"max":[
				0.6554312705993652,
				0.06951475143432617,
				0.27948102355003357
			],
			"min":[
				-0.6554312705993652,
				-0.03266178071498871,
				-0.30746373534202576
			],
			"type":"VEC3"
		},
		{
			"bufferView":45,
			"componentType":5126,
			"count":34,
			"type":"VEC3"
		},
		{
			"bufferView":46,
			"componentType":5126,
			"count":34,
			"type":"VEC2"
		},
		{
			"bufferView":47,
			"componentType":5123,
			"count":60,
			"type":"SCALAR"
		},
		{
			"bufferView":48,
			"componentType":5126,
			"count":60,
			"type":"VEC4"
		},
		{
			"bufferView":49,
			"componentType":5126,
			"count":60,
			"max":[
				1.2574081420898438,
				0.00016742944717407227,
				1.3084099292755127
			],
			"min":[
				-1.249559998512268,
				-0.000348508358001709,
				-1.2920128107070923
			],
			"type":"VEC3"
		},
		{
			"bufferView":50,
			"componentType":5126,
			"count":60,
			"type":"VEC3"
		},
		{
			"bufferView":51,
			"componentType":5126,
			"count":60,
			"type":"VEC2"
		},
		{
			"bufferView":52,
			"componentType":5123,
			"count":90,
			"type":"SCALAR"
		},
		{
			"bufferView":53,
			"componentType":5126,
			"count":16,
			"type":"VEC4"
		},
		{
			"bufferView":54,
			"componentType":5126,
			"count":16,
			"max":[
				0.510416567325592,
				1.1920928955078125e-07,
				0.5104163289070129
			],
			"min":[
				-0.510416567325592,
				1.1920928955078125e-07,
				-0.5104162693023682
			],
			"type":"VEC3"
		},
		{
			"bufferView":55,
			"componentType":5126,
			"count":16,
			"type":"VEC3"
		},
		{
			"bufferView":56,
			"componentType":5126,
			"count":16,
			"type":"VEC2"
		},
		{
			"bufferView":57,
			"componentType":5123,
			"count":42,
			"type":"SCALAR"
		},
		{
			"bufferView":58,
			"componentType":5126,
			"count":144,
			"type":"VEC4"
		},
		{
			"bufferView":59,
			"componentType":5126,
			"count":144,
			"max":[
				0.49242734909057617,
				-5.960464477539063e-08,
				0.5096250176429749
			],
			"min":[
				-0.5170636177062988,
				-5.960464477539063e-08,
				-0.4898797273635864
			],
			"type":"VEC3"
		},
		{
			"bufferView":60,
			"componentType":5126,
			"count":144,
			"type":"VEC3"
		},
		{
			"bufferView":61,
			"componentType":5126,
			"count":144,
			"type":"VEC2"
		},
		{
			"bufferView":62,
			"componentType":5123,
			"count":378,
			"type":"SCALAR"
		},
		{
			"bufferView":63,
			"componentType":5126,
			"count":8,
			"type":"VEC4"
		},
		{
			"bufferView":64,
			"componentType":5126,
			"count":8,
			"max":[
				0.19289374351501465,
				0.0059404075145721436,
				0.1928938627243042
			],
			"min":[
				-0.19289374351501465,
				-0.0041619837284088135,
				-0.1928938627243042
			],
			"type":"VEC3"
		},
		{
			"bufferView":65,
			"componentType":5126,
			"count":8,
			"type":"VEC3"
		},
		{
			"bufferView":66,
			"componentType":5126,
			"count":8,
			"type":"VEC2"
		},
		{
			"bufferView":67,
			"componentType":5123,
			"count":12,
			"type":"SCALAR"
		},
		{
			"bufferView":68,
			"componentType":5126,
			"count":18,
			"type":"VEC4"
		},
		{
			"bufferView":69,
			"componentType":5126,
			"count":18,
			"max":[
				0.28476595878601074,
				0.009566874243319035,
				0.28476592898368835
			],
			"min":[
				-0.2847658395767212,
				-0.006702900864183903,
				-0.28476592898368835
			],
			"type":"VEC3"
		},
		{
			"bufferView":70,
			"componentType":5126,
			"count":18,
			"type":"VEC3"
		},
		{
			"bufferView":71,
			"componentType":5126,
			"count":18,
			"type":"VEC2"
		},
		{
			"bufferView":72,
			"componentType":5123,
			"count":48,
			"type":"SCALAR"
		},
		{
			"bufferView":73,
			"componentType":5126,
			"count":6,
			"type":"VEC4"
		},
		{
			"bufferView":74,
			"componentType":5126,
			"count":6,
			"max":[
				0.33219990134239197,
				0.00860816240310669,
				0.26136326789855957
			],
			"min":[
				-0.22711148858070374,
				-0.00480341911315918,
				-0.3628650903701782
			],
			"type":"VEC3"
		},
		{
			"bufferView":75,
			"componentType":5126,
			"count":6,
			"type":"VEC3"
		},
		{
			"bufferView":76,
			"componentType":5126,
			"count":6,
			"type":"VEC2"
		},
		{
			"bufferView":77,
			"componentType":5123,
			"count":6,
			"type":"SCALAR"
		}
	],
	"bufferViews":[
		{
			"buffer":0,
			"byteLength":192,
			"byteOffset":0,
			"target":34962
		},
		{
			"buffer":0,
			"byteLength":144,
			"byteOffset":192,
			"target":34962
		},
		{
			"buffer":0,
			"byteLength":144,
			"byteOffset":336,
			"target":34962
		},
		{
			"buffer":0,
			"byteLength":96,
			"byteOffset":480,
			"target":34962
		},
		{
			"buffer":0,
			"byteLength":24,
			"byteOffset":576,
			"target":34963
		},
		{
			"buffer":0,
			"byteLength":192,
			"byteOffset":600,
			"target":34962
		},
		{
			"buffer":0,
			"byteLength":144,
			"byteOffset":792,
			"target":34962
		},
		{
			"buffer":0,
			"byteLength":144,
			"byteOffset":936,
			"target":34962
		},
		{
			"buffer":0,
			"byteLength":96,
			"byteOffset":1080,
			"target":34962
		},
		{
			"buffer":0,
			"byteLength":240,
			"byteOffset":1176,
			"target":34962
		},
		{
			"buffer":0,
			"byteLength":180,
			"byteOffset":1416,
			"target":34962
		},
		{
			"buffer":0,
			"byteLength":180,
			"byteOffset":1596,
			"target":34962
		},
		{
			"buffer":0,
			"byteLength":120,
			"byteOffset":1776,
			"target":34962
		},
		{
			"buffer":0,
			"byteLength":30,
			"byteOffset":1896,
			"target":34963
		},
		{
			"buffer":0,
			"byteLength":240,
			"byteOffset":1928,
			"target":34962
		},
		{
			"buffer":0,
			"byteLength":180,
			"byteOffset":2168,
			"target":34962
		},
		{
			"buffer":0,
			"byteLength":180,
			"byteOffset":2348,
			"target":34962
		},
		{
			"buffer":0,
			"byteLength":120,
			"byteOffset":2528,
			"target":34962
		},
		{
			"buffer":0,
			"byteLength":704,
			"byteOffset":2648,
			"target":34962
		},
		{
			"buffer":0,
			"byteLength":528,
			"byteOffset":3352,
			"target":34962
		},
		{
			"buffer":0,
			"byteLength":528,
			"byteOffset":3880,
			"target":34962
		},
		{
			"buffer":0,
			"byteLength":352,
			"byteOffset":4408,
			"target":34962
		},
		{
			"buffer":0,
			"byteLength":120,
			"byteOffset":4760,
			"target":34963
		},
		{
			"buffer":0,
			"byteLength":576,
			"byteOffset":4880,
			"target":34962
		},
		{
			"buffer":0,
			"byteLength":432,
			"byteOffset":5456,
			"target":34962
		},
		{
			"buffer":0,
			"byteLength":432,
			"byteOffset":5888,
			"target":34962
		},
		{
			"buffer":0,
			"byteLength":288,
			"byteOffset":6320,
			"target":34962
		},
		{
			"buffer":0,
			"byteLength":108,
			"byteOffset":6608,
			"target":34963
		},
		{
			"buffer":0,
			"byteLength":768,
			"byteOffset":6716,
			"target":34962
		},
		{
			"buffer":0,
			"byteLength":576,
			"byteOffset":7484,
			"target":34962
		},
		{
			"buffer":0,
			"byteLength":576,
			"byteOffset":8060,
			"target":34962
		},
		{
			"buffer":0,
			"byteLength":384,
			"byteOffset":8636,
			"target":34962
		},
		{
			"buffer":0,
			"byteLength":144,
			"byteOffset":9020,
			"target":34963
		},
		{
			"buffer":0,
			"byteLength":1664,
			"byteOffset":9164,
			"target":34962
		},
		{
			"buffer":0,
			"byteLength":1248,
			"byteOffset":10828,
			"target":34962
		},
		{
			"buffer":0,
			"byteLength":1248,
			"byteOffset":12076,
			"target":34962
		},
		{
			"buffer":0,
			"byteLength":832,
			"byteOffset":13324,
			"target":34962
		},
		{
			"buffer":0,
			"byteLength":288,
			"byteOffset":14156,
			"target":34963
		},
		{
			"buffer":0,
			"byteLength":320,
			"byteOffset":14444,
			"target":34962
		},
		{
			"buffer":0,
			"byteLength":240,
			"byteOffset":14764,
			"target":34962
		},
		{
			"buffer":0,
			"byteLength":240,
			"byteOffset":15004,
			"target":34962
		},
		{
			"buffer":0,
			"byteLength":160,
			"byteOffset":15244,
			"target":34962
		},
		{
			"buffer":0,
			"byteLength":72,
			"byteOffset":15404,
			"target":34963
		},
		{
			"buffer":0,
			"byteLength":544,
			"byteOffset":15476,
			"target":34962
		},
		{
			"buffer":0,
			"byteLength":408,
			"byteOffset":16020,
			"target":34962
		},
		{
			"buffer":0,
			"byteLength":408,
			"byteOffset":16428,
			"target":34962
		},
		{
			"buffer":0,
			"byteLength":272,
			"byteOffset":16836,
			"target":34962
		},
		{
			"buffer":0,
			"byteLength":120,
			"byteOffset":17108,
			"target":34963
		},
		{
			"buffer":0,
			"byteLength":960,
			"byteOffset":17228,
			"target":34962
		},
		{
			"buffer":0,
			"byteLength":720,
			"byteOffset":18188,
			"target":34962
		},
		{
			"buffer":0,
			"byteLength":720,
			"byteOffset":18908,
			"target":34962
		},
		{
			"buffer":0,
			"byteLength":480,
			"byteOffset":19628,
			"target":34962
		},
		{
			"buffer":0,
			"byteLength":180,
			"byteOffset":20108,
			"target":34963
		},
		{
			"buffer":0,
			"byteLength":256,
			"byteOffset":20288,
			"target":34962
		},
		{
			"buffer":0,
			"byteLength":192,
			"byteOffset":20544,
			"target":34962
		},
		{
			"buffer":0,
			"byteLength":192,
			"byteOffset":20736,
			"target":34962
		},
		{
			"buffer":0,
			"byteLength":128,
			"byteOffset":20928,
			"target":34962
		},
		{
			"buffer":0,
			"byteLength":84,
			"byteOffset":21056,
			"target":34963
		},
		{
			"buffer":0,
			"byteLength":2304,
			"byteOffset":21140,
			"target":34962
		},
		{
			"buffer":0,
			"byteLength":1728,
			"byteOffset":23444,
			"target":34962
		},
		{
			"buffer":0,
			"byteLength":1728,
			"byteOffset":25172,
			"target":34962
		},
		{
			"buffer":0,
			"byteLength":1152,
			"byteOffset":26900,
			"target":34962
		},
		{
			"buffer":0,
			"byteLength":756,
			"byteOffset":28052,
			"target":34963
		},
		{
			"buffer":0,
			"byteLength":128,
			"byteOffset":28808,
			"target":34962
		},
		{
			"buffer":0,
			"byteLength":96,
			"byteOffset":28936,
			"target":34962
		},
		{
			"buffer":0,
			"byteLength":96,
			"byteOffset":29032,
			"target":34962
		},
		{
			"buffer":0,
			"byteLength":64,
			"byteOffset":29128,
			"target":34962
		},
		{
			"buffer":0,
			"byteLength":24,
			"byteOffset":29192,
			"target":34963
		},
		{
			"buffer":0,
			"byteLength":288,
			"byteOffset":29216,
			"target":34962
		},
		{
			"buffer":0,
			"byteLength":216,
			"byteOffset":29504,
			"target":34962
		},
		{
			"buffer":0,
			"byteLength":216,
			"byteOffset":29720,
			"target":34962
		},
		{
			"buffer":0,
			"byteLength":144,
			"byteOffset":29936,
			"target":34962
		},
		{
			"buffer":0,
			"byteLength":96,
			"byteOffset":30080,
			"target":34963
		},
		{
			"buffer":0,
			"byteLength":96,
			"byteOffset":30176,
			"target":34962
		},
		{
			"buffer":0,
			"byteLength":72,
			"byteOffset":30272,
			"target":34962
		},
		{
			"buffer":0,
			"byteLength":72,
			"byteOffset":30344,
			"target":34962
		},
		{
			"buffer":0,
			"byteLength":48,
			"byteOffset":30416,
			"target":34962
		},
		{
			"buffer":0,
			"byteLength":12,
			"byteOffset":30464,
			"target":34963
		}
	],
	"buffers":[
		{
			"byteLength":30476,
			"uri":"data:application/octet-stream;base64,"
		}
	]
}
